<svg xmlns="http://www.w3.org/2000/svg" id="Layer_1" data-name="Layer 1" version="1.1"
  viewBox="0 0 1024 1024">
  <defs id="defs628">
    <style id="style613">
      .cls-2{fill:#fff}.cls-3{fill:#ffce00}
    </style>
  </defs>
  <path id="rect55" fill="#8547b2" d="M0 0h1024v1024H0z" style="stroke-width:5.38946" />
  <g id="g2152" transform="matrix(.85714285 0 0 .85714286 73.142859 73.142856)">
    <g id="g671" transform="matrix(1.7811005 0 0 1.7885758 -185.92408 -211.32438)">
      <path id="path648"
        d="M567 600.1a21.34 21.34 0 0 1-15.14-6.27L426.9 468.92a21.411193 21.411193 0 1 1 30.28-30.28l124.91 124.9A21.42 21.42 0 0 1 567 600.1Z"
        class="cls-3" />
      <path id="path650"
        d="M441.33 600.1a21.42 21.42 0 0 1-15.14-36.56l124.9-124.9a21.411193 21.411193 0 1 1 30.28 30.28l-124.9 124.91a21.34 21.34 0 0 1-15.14 6.27z"
        class="cls-3" />
    </g>
    <path id="path660"
      d="M311.99999 862A150 150 0 1 1 462 712a150.17519 150.17519 0 0 1-150.00001 150Zm0-224.99204A75.007964 75.007964 0 1 0 386.99204 712a75.071666 75.071666 0 0 0-74.99205-74.99204Z"
      class="cls-2" style="stroke-width:1.59253" />
    <path id="path662"
      d="M711.99999 462A150 150 0 1 1 862 311.99999 150.17519 150.17519 0 0 1 711.99999 462Zm0-224.99205a75.007964 75.007964 0 1 0 74.99205 74.99204 75.071666 75.071666 0 0 0-74.99205-74.99204z"
      class="cls-2" style="stroke-width:1.59253" />
    <g id="g675" transform="matrix(1.7815224 0 0 1.7885748 -76.906516 -106.767)">
      <path id="path644"
        d="M281.13 318a21.34 21.34 0 0 1-15.13-6.23L141.08 186.86a21.411193 21.411193 0 0 1 30.28-30.28l124.91 124.9A21.42 21.42 0 0 1 281.13 318Z"
        class="cls-3" />
      <path id="path646"
        d="M155.51 318a21.42 21.42 0 0 1-15.14-36.56l124.9-124.9a21.411193 21.411193 0 0 1 30.28 30.28l-124.9 124.95a21.34 21.34 0 0 1-15.14 6.23Z"
        class="cls-3" />
    </g>
  </g>
</svg>